<svg width="53" height="46" viewBox="0 0 53 46" fill="none" xmlns="http://www.w3.org/2000/svg">
<path d="M14.9997 42.6668C15.9201 42.6668 16.6663 41.9206 16.6663 41.0002C16.6663 40.0797 15.9201 39.3335 14.9997 39.3335C14.0792 39.3335 13.333 40.0797 13.333 41.0002C13.333 41.9206 14.0792 42.6668 14.9997 42.6668Z" stroke="white" stroke-width="3" stroke-linecap="round" stroke-linejoin="round"/>
<path d="M33.3337 42.6668C34.2541 42.6668 35.0003 41.9206 35.0003 41.0002C35.0003 40.0797 34.2541 39.3335 33.3337 39.3335C32.4132 39.3335 31.667 40.0797 31.667 41.0002C31.667 41.9206 32.4132 42.6668 33.3337 42.6668Z" stroke="white" stroke-width="3" stroke-linecap="round" stroke-linejoin="round"/>
<path d="M1.66699 7.6665H8.33366L12.8003 29.9832C12.9527 30.7505 13.3702 31.4398 13.9796 31.9303C14.589 32.4209 15.3515 32.6815 16.1337 32.6665H32.3337C33.1158 32.6815 33.8784 32.4209 34.4877 31.9303C35.0971 31.4398 35.5146 30.7505 35.667 29.9832L38.3337 15.9998H10.0003" stroke="white" stroke-width="3" stroke-linecap="round" stroke-linejoin="round"/>
<circle cx="38" cy="15" r="15" fill="#FEF600"/>
</svg>
