<svg width="189" height="24" viewBox="0 0 189 24" fill="none" xmlns="http://www.w3.org/2000/svg">
<path d="M11.0039 11.0039H12.7617C12.7617 12.2305 12.4102 13.1523 11.707 13.7695C11.0117 14.3789 10.0625 14.6836 8.85938 14.6836C8.02344 14.6836 7.30078 14.4922 6.69141 14.1094C6.08984 13.7266 5.62109 13.1953 5.28516 12.5156C4.95703 11.8359 4.79297 11.0469 4.79297 10.1484V8.77734C4.79297 7.87891 4.95703 7.08984 5.28516 6.41016C5.62109 5.73047 6.08984 5.19922 6.69141 4.81641C7.30078 4.43359 8.02344 4.24219 8.85938 4.24219C10.0625 4.24219 11.0156 4.55078 11.7188 5.16797C12.4219 5.77734 12.7734 6.69531 12.7734 7.92188H11.0156C11.0156 7.15625 10.832 6.60938 10.4648 6.28125C10.1055 5.94531 9.57031 5.77734 8.85938 5.77734C8.35156 5.77734 7.92188 5.90625 7.57031 6.16406C7.22656 6.41406 6.96484 6.76562 6.78516 7.21875C6.61328 7.67188 6.52734 8.1875 6.52734 8.76562V10.1484C6.52734 10.7344 6.61328 11.2539 6.78516 11.707C6.96484 12.1602 7.22656 12.5156 7.57031 12.7734C7.92188 13.0234 8.35156 13.1484 8.85938 13.1484C9.57031 13.1484 10.1055 12.9844 10.4648 12.6562C10.8242 12.3281 11.0039 11.7773 11.0039 11.0039ZM2.07422 9.45703C2.07422 10.4961 2.25391 11.4648 2.61328 12.3633C2.97266 13.2539 3.46875 14.0352 4.10156 14.707C4.74219 15.3711 5.48047 15.8906 6.31641 16.2656C7.16016 16.6328 8.0625 16.8164 9.02344 16.8164C9.97656 16.8164 10.8711 16.6328 11.707 16.2656C12.543 15.8906 13.2773 15.3711 13.9102 14.707C14.5508 14.0352 15.0508 13.2539 15.4102 12.3633C15.7695 11.4648 15.9492 10.4961 15.9492 9.45703C15.9492 8.41797 15.7695 7.45312 15.4102 6.5625C15.0508 5.67188 14.5508 4.89453 13.9102 4.23047C13.2773 3.56641 12.543 3.05078 11.707 2.68359C10.8711 2.30859 9.97656 2.12109 9.02344 2.12109C8.0625 2.12109 7.16016 2.30859 6.31641 2.68359C5.48047 3.05078 4.74219 3.56641 4.10156 4.23047C3.46875 4.89453 2.97266 5.67188 2.61328 6.5625C2.25391 7.45312 2.07422 8.41797 2.07422 9.45703ZM0.703125 9.45703C0.703125 8.21484 0.917969 7.0625 1.34766 6C1.77734 4.9375 2.375 4.01172 3.14062 3.22266C3.90625 2.42578 4.78906 1.80859 5.78906 1.37109C6.79688 0.925781 7.875 0.703125 9.02344 0.703125C10.1719 0.703125 11.2461 0.925781 12.2461 1.37109C13.2539 1.80859 14.1367 2.42578 14.8945 3.22266C15.6602 4.01172 16.2578 4.9375 16.6875 6C17.1172 7.0625 17.332 8.21484 17.332 9.45703C17.332 10.6992 17.1172 11.8516 16.6875 12.9141C16.2578 13.9766 15.6602 14.9102 14.8945 15.7148C14.1367 16.5117 13.2539 17.1328 12.2461 17.5781C11.2461 18.0234 10.1719 18.2461 9.02344 18.2461C7.875 18.2461 6.79688 18.0234 5.78906 17.5781C4.78906 17.1328 3.90625 16.5117 3.14062 15.7148C2.375 14.9102 1.77734 13.9766 1.34766 12.9141C0.917969 11.8516 0.703125 10.6992 0.703125 9.45703ZM36.3047 12.4453H39.2344C39.1406 13.5625 38.8281 14.5586 38.2969 15.4336C37.7656 16.3008 37.0195 16.9844 36.0586 17.4844C35.0977 17.9844 33.9297 18.2344 32.5547 18.2344C31.5 18.2344 30.5508 18.0469 29.707 17.6719C28.8633 17.2891 28.1406 16.75 27.5391 16.0547C26.9375 15.3516 26.4766 14.5039 26.1562 13.5117C25.8438 12.5195 25.6875 11.4102 25.6875 10.1836V8.76562C25.6875 7.53906 25.8477 6.42969 26.168 5.4375C26.4961 4.44531 26.9648 3.59766 27.5742 2.89453C28.1836 2.18359 28.9141 1.64062 29.7656 1.26562C30.625 0.890625 31.5898 0.703125 32.6602 0.703125C34.0195 0.703125 35.168 0.953125 36.1055 1.45312C37.043 1.95313 37.7695 2.64453 38.2852 3.52734C38.8086 4.41016 39.1289 5.42188 39.2461 6.5625H36.3164C36.2383 5.82812 36.0664 5.19922 35.8008 4.67578C35.543 4.15234 35.1602 3.75391 34.6523 3.48047C34.1445 3.19922 33.4805 3.05859 32.6602 3.05859C31.9883 3.05859 31.4023 3.18359 30.9023 3.43359C30.4023 3.68359 29.9844 4.05078 29.6484 4.53516C29.3125 5.01953 29.0586 5.61719 28.8867 6.32812C28.7227 7.03125 28.6406 7.83594 28.6406 8.74219V10.1836C28.6406 11.043 28.7148 11.8242 28.8633 12.5273C29.0195 13.2227 29.2539 13.8203 29.5664 14.3203C29.8867 14.8203 30.293 15.207 30.7852 15.4805C31.2773 15.7539 31.8672 15.8906 32.5547 15.8906C33.3906 15.8906 34.0664 15.7578 34.582 15.4922C35.1055 15.2266 35.5 14.8398 35.7656 14.332C36.0391 13.8164 36.2188 13.1875 36.3047 12.4453ZM41.0859 11.8008V11.5312C41.0859 10.6172 41.2188 9.76953 41.4844 8.98828C41.75 8.19922 42.1328 7.51562 42.6328 6.9375C43.1406 6.35156 43.7578 5.89844 44.4844 5.57812C45.2188 5.25 46.0469 5.08594 46.9688 5.08594C47.8984 5.08594 48.7266 5.25 49.4531 5.57812C50.1875 5.89844 50.8086 6.35156 51.3164 6.9375C51.8242 7.51562 52.2109 8.19922 52.4766 8.98828C52.7422 9.76953 52.875 10.6172 52.875 11.5312V11.8008C52.875 12.7148 52.7422 13.5625 52.4766 14.3438C52.2109 15.125 51.8242 15.8086 51.3164 16.3945C50.8086 16.9727 50.1914 17.4258 49.4648 17.7539C48.7383 18.0742 47.9141 18.2344 46.9922 18.2344C46.0625 18.2344 45.2305 18.0742 44.4961 17.7539C43.7695 17.4258 43.1523 16.9727 42.6445 16.3945C42.1367 15.8086 41.75 15.125 41.4844 14.3438C41.2188 13.5625 41.0859 12.7148 41.0859 11.8008ZM43.9102 11.5312V11.8008C43.9102 12.3711 43.9688 12.9102 44.0859 13.418C44.2031 13.9258 44.3867 14.3711 44.6367 14.7539C44.8867 15.1367 45.207 15.4375 45.5977 15.6562C45.9883 15.875 46.4531 15.9844 46.9922 15.9844C47.5156 15.9844 47.9688 15.875 48.3516 15.6562C48.7422 15.4375 49.0625 15.1367 49.3125 14.7539C49.5625 14.3711 49.7461 13.9258 49.8633 13.418C49.9883 12.9102 50.0508 12.3711 50.0508 11.8008V11.5312C50.0508 10.9688 49.9883 10.4375 49.8633 9.9375C49.7461 9.42969 49.5586 8.98047 49.3008 8.58984C49.0508 8.19922 48.7305 7.89453 48.3398 7.67578C47.957 7.44922 47.5 7.33594 46.9688 7.33594C46.4375 7.33594 45.9766 7.44922 45.5859 7.67578C45.2031 7.89453 44.8867 8.19922 44.6367 8.58984C44.3867 8.98047 44.2031 9.42969 44.0859 9.9375C43.9688 10.4375 43.9102 10.9688 43.9102 11.5312ZM58.0781 7.75781V22.875H55.2539V5.32031H57.8555L58.0781 7.75781ZM66.3398 11.543V11.7891C66.3398 12.7109 66.2305 13.5664 66.0117 14.3555C65.8008 15.1367 65.4844 15.8203 65.0625 16.4062C64.6484 16.9844 64.1367 17.4336 63.5273 17.7539C62.918 18.0742 62.2148 18.2344 61.418 18.2344C60.6289 18.2344 59.9375 18.0898 59.3438 17.8008C58.7578 17.5039 58.2617 17.0859 57.8555 16.5469C57.4492 16.0078 57.1211 15.375 56.8711 14.6484C56.6289 13.9141 56.457 13.1094 56.3555 12.2344V11.2852C56.457 10.3555 56.6289 9.51172 56.8711 8.75391C57.1211 7.99609 57.4492 7.34375 57.8555 6.79688C58.2617 6.25 58.7578 5.82812 59.3438 5.53125C59.9297 5.23438 60.6133 5.08594 61.3945 5.08594C62.1914 5.08594 62.8984 5.24219 63.5156 5.55469C64.1328 5.85938 64.6523 6.29688 65.0742 6.86719C65.4961 7.42969 65.8125 8.10938 66.0234 8.90625C66.2344 9.69531 66.3398 10.5742 66.3398 11.543ZM63.5156 11.7891V11.543C63.5156 10.957 63.4609 10.4141 63.3516 9.91406C63.2422 9.40625 63.0703 8.96094 62.8359 8.57812C62.6016 8.19531 62.3008 7.89844 61.9336 7.6875C61.5742 7.46875 61.1406 7.35938 60.6328 7.35938C60.1328 7.35938 59.7031 7.44531 59.3438 7.61719C58.9844 7.78125 58.6836 8.01172 58.4414 8.30859C58.1992 8.60547 58.0117 8.95312 57.8789 9.35156C57.7461 9.74219 57.6523 10.168 57.5977 10.6289V12.9023C57.6914 13.4648 57.8516 13.9805 58.0781 14.4492C58.3047 14.918 58.625 15.293 59.0391 15.5742C59.4609 15.8477 60 15.9844 60.6562 15.9844C61.1641 15.9844 61.5977 15.875 61.957 15.6562C62.3164 15.4375 62.6094 15.1367 62.8359 14.7539C63.0703 14.3633 63.2422 13.9141 63.3516 13.4062C63.4609 12.8984 63.5156 12.3594 63.5156 11.7891ZM72.2812 16.6172L75.7266 5.32031H78.75L73.6641 19.9336C73.5469 20.2461 73.3945 20.5859 73.207 20.9531C73.0195 21.3203 72.7734 21.668 72.4688 21.9961C72.1719 22.332 71.8008 22.6016 71.3555 22.8047C70.9102 23.0156 70.3711 23.1211 69.7383 23.1211C69.4883 23.1211 69.2461 23.0977 69.0117 23.0508C68.7852 23.0117 68.5703 22.9688 68.3672 22.9219L68.3555 20.7656C68.4336 20.7734 68.5273 20.7812 68.6367 20.7891C68.7539 20.7969 68.8477 20.8008 68.918 20.8008C69.3867 20.8008 69.7773 20.7422 70.0898 20.625C70.4023 20.5156 70.6562 20.3359 70.8516 20.0859C71.0547 19.8359 71.2266 19.5 71.3672 19.0781L72.2812 16.6172ZM70.3359 5.32031L73.3477 14.8125L73.8516 17.7891L71.8945 18.293L67.2891 5.32031H70.3359ZM83.2031 7.73438V18H80.3789V5.32031H83.0742L83.2031 7.73438ZM87.082 5.23828L87.0586 7.86328C86.8867 7.83203 86.6992 7.80859 86.4961 7.79297C86.3008 7.77734 86.1055 7.76953 85.9102 7.76953C85.4258 7.76953 85 7.83984 84.6328 7.98047C84.2656 8.11328 83.957 8.30859 83.707 8.56641C83.4648 8.81641 83.2773 9.12109 83.1445 9.48047C83.0117 9.83984 82.9336 10.2422 82.9102 10.6875L82.2656 10.7344C82.2656 9.9375 82.3438 9.19922 82.5 8.51953C82.6562 7.83984 82.8906 7.24219 83.2031 6.72656C83.5234 6.21094 83.9219 5.80859 84.3984 5.51953C84.8828 5.23047 85.4414 5.08594 86.0742 5.08594C86.2461 5.08594 86.4297 5.10156 86.625 5.13281C86.8281 5.16406 86.9805 5.19922 87.082 5.23828ZM91.875 5.32031V18H89.0391V5.32031H91.875ZM88.8516 1.99219C88.8516 1.5625 88.9922 1.20703 89.2734 0.925781C89.5625 0.636719 89.9609 0.492188 90.4688 0.492188C90.9688 0.492188 91.3633 0.636719 91.6523 0.925781C91.9414 1.20703 92.0859 1.5625 92.0859 1.99219C92.0859 2.41406 91.9414 2.76562 91.6523 3.04688C91.3633 3.32812 90.9688 3.46875 90.4688 3.46875C89.9609 3.46875 89.5625 3.32812 89.2734 3.04688C88.9922 2.76562 88.8516 2.41406 88.8516 1.99219ZM103.09 5.32031H105.656V17.6484C105.656 18.7891 105.414 19.7578 104.93 20.5547C104.445 21.3516 103.77 21.957 102.902 22.3711C102.035 22.793 101.031 23.0039 99.8906 23.0039C99.4062 23.0039 98.8672 22.9336 98.2734 22.793C97.6875 22.6523 97.1172 22.4258 96.5625 22.1133C96.0156 21.8086 95.5586 21.4062 95.1914 20.9062L96.5156 19.2422C96.9688 19.7812 97.4688 20.1758 98.0156 20.4258C98.5625 20.6758 99.1367 20.8008 99.7383 20.8008C100.387 20.8008 100.938 20.6797 101.391 20.4375C101.852 20.2031 102.207 19.8555 102.457 19.3945C102.707 18.9336 102.832 18.3711 102.832 17.707V8.19141L103.09 5.32031ZM94.4766 11.8008V11.5547C94.4766 10.5938 94.5938 9.71875 94.8281 8.92969C95.0625 8.13281 95.3984 7.44922 95.8359 6.87891C96.2734 6.30078 96.8047 5.85938 97.4297 5.55469C98.0547 5.24219 98.7617 5.08594 99.5508 5.08594C100.371 5.08594 101.07 5.23438 101.648 5.53125C102.234 5.82812 102.723 6.25391 103.113 6.80859C103.504 7.35547 103.809 8.01172 104.027 8.77734C104.254 9.53516 104.422 10.3789 104.531 11.3086V12.0938C104.43 13 104.258 13.8281 104.016 14.5781C103.773 15.3281 103.453 15.9766 103.055 16.5234C102.656 17.0703 102.164 17.4922 101.578 17.7891C101 18.0859 100.316 18.2344 99.5273 18.2344C98.7539 18.2344 98.0547 18.0742 97.4297 17.7539C96.8125 17.4336 96.2812 16.9844 95.8359 16.4062C95.3984 15.8281 95.0625 15.1484 94.8281 14.3672C94.5938 13.5781 94.4766 12.7227 94.4766 11.8008ZM97.3008 11.5547V11.8008C97.3008 12.3789 97.3555 12.918 97.4648 13.418C97.582 13.918 97.7578 14.3594 97.9922 14.7422C98.2344 15.1172 98.5391 15.4141 98.9062 15.6328C99.2812 15.8438 99.7227 15.9492 100.23 15.9492C100.895 15.9492 101.438 15.8086 101.859 15.5273C102.289 15.2461 102.617 14.8672 102.844 14.3906C103.078 13.9062 103.242 13.3672 103.336 12.7734V10.6523C103.289 10.1914 103.191 9.76172 103.043 9.36328C102.902 8.96484 102.711 8.61719 102.469 8.32031C102.227 8.01562 101.922 7.78125 101.555 7.61719C101.188 7.44531 100.754 7.35938 100.254 7.35938C99.7461 7.35938 99.3047 7.46875 98.9297 7.6875C98.5547 7.90625 98.2461 8.20703 98.0039 8.58984C97.7695 8.97266 97.5938 9.41797 97.4766 9.92578C97.3594 10.4336 97.3008 10.9766 97.3008 11.5547ZM111.375 0V18H108.562V0H111.375ZM110.883 11.1914L109.969 11.1797C109.977 10.3047 110.098 9.49609 110.332 8.75391C110.574 8.01172 110.91 7.36719 111.34 6.82031C111.777 6.26562 112.301 5.83984 112.91 5.54297C113.52 5.23828 114.195 5.08594 114.938 5.08594C115.562 5.08594 116.125 5.17188 116.625 5.34375C117.133 5.51562 117.57 5.79297 117.938 6.17578C118.305 6.55078 118.582 7.04297 118.77 7.65234C118.965 8.25391 119.062 8.98828 119.062 9.85547V18H116.227V9.83203C116.227 9.22266 116.137 8.73828 115.957 8.37891C115.785 8.01953 115.531 7.76172 115.195 7.60547C114.859 7.44141 114.449 7.35938 113.965 7.35938C113.457 7.35938 113.008 7.46094 112.617 7.66406C112.234 7.86719 111.914 8.14453 111.656 8.49609C111.398 8.84766 111.203 9.25391 111.07 9.71484C110.945 10.1758 110.883 10.668 110.883 11.1914ZM127.734 5.32031V7.38281H120.586V5.32031H127.734ZM122.648 2.21484H125.473V14.4961C125.473 14.8867 125.527 15.1875 125.637 15.3984C125.754 15.6016 125.914 15.7383 126.117 15.8086C126.32 15.8789 126.559 15.9141 126.832 15.9141C127.027 15.9141 127.215 15.9023 127.395 15.8789C127.574 15.8555 127.719 15.832 127.828 15.8086L127.84 17.9648C127.605 18.0352 127.332 18.0977 127.02 18.1523C126.715 18.207 126.363 18.2344 125.965 18.2344C125.316 18.2344 124.742 18.1211 124.242 17.8945C123.742 17.6602 123.352 17.2812 123.07 16.7578C122.789 16.2344 122.648 15.5391 122.648 14.6719V2.21484ZM147.164 15.75V18H135.727V16.0664L141.281 10.0078C141.891 9.32031 142.371 8.72656 142.723 8.22656C143.074 7.72656 143.32 7.27734 143.461 6.87891C143.609 6.47266 143.684 6.07812 143.684 5.69531C143.684 5.15625 143.582 4.68359 143.379 4.27734C143.184 3.86328 142.895 3.53906 142.512 3.30469C142.129 3.0625 141.664 2.94141 141.117 2.94141C140.484 2.94141 139.953 3.07813 139.523 3.35156C139.094 3.625 138.77 4.00391 138.551 4.48828C138.332 4.96484 138.223 5.51172 138.223 6.12891H135.398C135.398 5.13672 135.625 4.23047 136.078 3.41016C136.531 2.58203 137.188 1.92578 138.047 1.44141C138.906 0.949219 139.941 0.703125 141.152 0.703125C142.293 0.703125 143.262 0.894531 144.059 1.27734C144.855 1.66016 145.461 2.20312 145.875 2.90625C146.297 3.60938 146.508 4.44141 146.508 5.40234C146.508 5.93359 146.422 6.46094 146.25 6.98438C146.078 7.50781 145.832 8.03125 145.512 8.55469C145.199 9.07031 144.828 9.58984 144.398 10.1133C143.969 10.6289 143.496 11.1523 142.98 11.6836L139.289 15.75H147.164ZM160.488 8.03906V10.8281C160.488 12.1641 160.355 13.3047 160.09 14.25C159.832 15.1875 159.457 15.9492 158.965 16.5352C158.473 17.1211 157.883 17.5508 157.195 17.8242C156.516 18.0977 155.754 18.2344 154.91 18.2344C154.238 18.2344 153.613 18.1484 153.035 17.9766C152.465 17.8047 151.949 17.5352 151.488 17.168C151.027 16.8008 150.633 16.3281 150.305 15.75C149.984 15.1641 149.734 14.4648 149.555 13.6523C149.383 12.8398 149.297 11.8984 149.297 10.8281V8.03906C149.297 6.69531 149.43 5.5625 149.695 4.64062C149.961 3.71094 150.34 2.95703 150.832 2.37891C151.324 1.79297 151.91 1.36719 152.59 1.10156C153.277 0.835937 154.043 0.703125 154.887 0.703125C155.566 0.703125 156.191 0.789062 156.762 0.960938C157.34 1.125 157.855 1.38672 158.309 1.74609C158.77 2.10547 159.16 2.57422 159.48 3.15234C159.809 3.72266 160.059 4.41406 160.23 5.22656C160.402 6.03125 160.488 6.96875 160.488 8.03906ZM157.664 11.2266V7.61719C157.664 6.9375 157.625 6.33984 157.547 5.82422C157.469 5.30078 157.352 4.85938 157.195 4.5C157.047 4.13281 156.859 3.83594 156.633 3.60938C156.406 3.375 156.148 3.20703 155.859 3.10547C155.57 2.99609 155.246 2.94141 154.887 2.94141C154.449 2.94141 154.059 3.02734 153.715 3.19922C153.371 3.36328 153.082 3.62891 152.848 3.99609C152.613 4.36328 152.434 4.84766 152.309 5.44922C152.191 6.04297 152.133 6.76562 152.133 7.61719V11.2266C152.133 11.9141 152.172 12.5195 152.25 13.043C152.328 13.5664 152.445 14.0156 152.602 14.3906C152.758 14.7578 152.945 15.0625 153.164 15.3047C153.391 15.5391 153.648 15.7109 153.938 15.8203C154.234 15.9297 154.559 15.9844 154.91 15.9844C155.355 15.9844 155.75 15.8984 156.094 15.7266C156.438 15.5547 156.727 15.2812 156.961 14.9062C157.195 14.5234 157.371 14.0273 157.488 13.418C157.605 12.8086 157.664 12.0781 157.664 11.2266ZM174.445 15.75V18H163.008V16.0664L168.562 10.0078C169.172 9.32031 169.652 8.72656 170.004 8.22656C170.355 7.72656 170.602 7.27734 170.742 6.87891C170.891 6.47266 170.965 6.07812 170.965 5.69531C170.965 5.15625 170.863 4.68359 170.66 4.27734C170.465 3.86328 170.176 3.53906 169.793 3.30469C169.41 3.0625 168.945 2.94141 168.398 2.94141C167.766 2.94141 167.234 3.07813 166.805 3.35156C166.375 3.625 166.051 4.00391 165.832 4.48828C165.613 4.96484 165.504 5.51172 165.504 6.12891H162.68C162.68 5.13672 162.906 4.23047 163.359 3.41016C163.812 2.58203 164.469 1.92578 165.328 1.44141C166.188 0.949219 167.223 0.703125 168.434 0.703125C169.574 0.703125 170.543 0.894531 171.34 1.27734C172.137 1.66016 172.742 2.20312 173.156 2.90625C173.578 3.60938 173.789 4.44141 173.789 5.40234C173.789 5.93359 173.703 6.46094 173.531 6.98438C173.359 7.50781 173.113 8.03125 172.793 8.55469C172.48 9.07031 172.109 9.58984 171.68 10.1133C171.25 10.6289 170.777 11.1523 170.262 11.6836L166.57 15.75H174.445ZM188.086 15.75V18H176.648V16.0664L182.203 10.0078C182.812 9.32031 183.293 8.72656 183.645 8.22656C183.996 7.72656 184.242 7.27734 184.383 6.87891C184.531 6.47266 184.605 6.07812 184.605 5.69531C184.605 5.15625 184.504 4.68359 184.301 4.27734C184.105 3.86328 183.816 3.53906 183.434 3.30469C183.051 3.0625 182.586 2.94141 182.039 2.94141C181.406 2.94141 180.875 3.07813 180.445 3.35156C180.016 3.625 179.691 4.00391 179.473 4.48828C179.254 4.96484 179.145 5.51172 179.145 6.12891H176.32C176.32 5.13672 176.547 4.23047 177 3.41016C177.453 2.58203 178.109 1.92578 178.969 1.44141C179.828 0.949219 180.863 0.703125 182.074 0.703125C183.215 0.703125 184.184 0.894531 184.98 1.27734C185.777 1.66016 186.383 2.20312 186.797 2.90625C187.219 3.60938 187.43 4.44141 187.43 5.40234C187.43 5.93359 187.344 6.46094 187.172 6.98438C187 7.50781 186.754 8.03125 186.434 8.55469C186.121 9.07031 185.75 9.58984 185.32 10.1133C184.891 10.6289 184.418 11.1523 183.902 11.6836L180.211 15.75H188.086Z" fill="#8C8C8C"/>
</svg>
