<svg width="38" height="38" viewBox="0 0 38 38" fill="none" xmlns="http://www.w3.org/2000/svg">
<path d="M37.64 11.3021C37.619 9.72425 37.3236 8.16207 36.7671 6.68545C36.2845 5.43993 35.5473 4.30878 34.6028 3.36426C33.6583 2.41975 32.5272 1.68264 31.2816 1.20003C29.824 0.65286 28.2841 0.356994 26.7275 0.325033C24.7233 0.235449 24.0879 0.210449 19.0004 0.210449C13.9129 0.210449 13.2608 0.210449 11.2712 0.325033C9.7153 0.357229 8.17612 0.653091 6.71914 1.20003C5.47343 1.6823 4.3421 2.41929 3.39754 3.36385C2.45298 4.30841 1.71599 5.43974 1.23372 6.68545C0.685455 8.14197 0.390231 9.68151 0.360807 11.2375C0.271224 13.2438 0.244141 13.8792 0.244141 18.9667C0.244141 24.0542 0.244141 24.7042 0.360807 26.6959C0.392057 28.2542 0.685807 29.7917 1.23372 31.2521C1.7168 32.4974 2.45434 33.6283 3.39922 34.5725C4.34409 35.5166 5.47552 36.2533 6.72122 36.7355C8.17421 37.3046 9.71367 37.6217 11.2733 37.6729C13.2796 37.7625 13.915 37.7896 19.0025 37.7896C24.09 37.7896 24.7421 37.7896 26.7316 37.6729C28.2882 37.6423 29.8282 37.3471 31.2858 36.8C32.531 36.3169 33.6619 35.5796 34.6063 34.6351C35.5508 33.6907 36.2881 32.5598 36.7712 31.3146C37.3191 29.8563 37.6129 28.3188 37.6441 26.7584C37.7337 24.7542 37.7608 24.1188 37.7608 19.0292C37.7566 13.9417 37.7566 13.2959 37.64 11.3021ZM18.9879 28.5875C13.6671 28.5875 9.35664 24.2771 9.35664 18.9563C9.35664 13.6354 13.6671 9.32503 18.9879 9.32503C21.5423 9.32503 23.992 10.3398 25.7982 12.146C27.6044 13.9522 28.6191 16.4019 28.6191 18.9563C28.6191 21.5106 27.6044 23.9604 25.7982 25.7666C23.992 27.5728 21.5423 28.5875 18.9879 28.5875ZM29.0025 11.2146C28.7075 11.2149 28.4153 11.157 28.1427 11.0442C27.8701 10.9315 27.6224 10.766 27.4138 10.5574C27.2052 10.3488 27.0398 10.1012 26.927 9.82855C26.8143 9.55595 26.7564 9.26379 26.7566 8.96878C26.7566 8.67399 26.8147 8.38209 26.9275 8.10974C27.0403 7.83739 27.2057 7.58992 27.4141 7.38147C27.6226 7.17303 27.87 7.00768 28.1424 6.89487C28.4147 6.78205 28.7066 6.72399 29.0014 6.72399C29.2962 6.72399 29.5881 6.78205 29.8605 6.89487C30.1328 7.00768 30.3803 7.17303 30.5887 7.38147C30.7972 7.58992 30.9625 7.83739 31.0753 8.10974C31.1882 8.38209 31.2462 8.67399 31.2462 8.96878C31.2462 10.2104 30.2421 11.2146 29.0025 11.2146Z" fill="#8C8C8C"/>
</svg>
