<svg width="161" height="28" viewBox="0 0 161 28" fill="none" xmlns="http://www.w3.org/2000/svg">
<path d="M4.72266 4.9375V22H1.79297V4.9375H4.72266ZM14.9883 4.9375L8.05078 14.6641H3.89062L3.49219 12.1094H6.42188L11.3906 4.9375H14.9883ZM11.9883 22L6.46875 14.2188L8.36719 11.957L15.5156 22H11.9883ZM24.0703 19.457V13.4102C24.0703 12.957 23.9883 12.5664 23.8242 12.2383C23.6602 11.9102 23.4102 11.6562 23.0742 11.4766C22.7461 11.2969 22.332 11.207 21.832 11.207C21.3711 11.207 20.9727 11.2852 20.6367 11.4414C20.3008 11.5977 20.0391 11.8086 19.8516 12.0742C19.6641 12.3398 19.5703 12.6406 19.5703 12.9766H16.7578C16.7578 12.4766 16.8789 11.9922 17.1211 11.5234C17.3633 11.0547 17.7148 10.6367 18.1758 10.2695C18.6367 9.90234 19.1875 9.61328 19.8281 9.40234C20.4688 9.19141 21.1875 9.08594 21.9844 9.08594C22.9375 9.08594 23.7812 9.24609 24.5156 9.56641C25.2578 9.88672 25.8398 10.3711 26.2617 11.0195C26.6914 11.6602 26.9062 12.4648 26.9062 13.4336V19.0703C26.9062 19.6484 26.9453 20.168 27.0234 20.6289C27.1094 21.082 27.2305 21.4766 27.3867 21.8125V22H24.4922C24.3594 21.6953 24.2539 21.3086 24.1758 20.8398C24.1055 20.3633 24.0703 19.9023 24.0703 19.457ZM24.4805 14.2891L24.5039 16.0352H22.4766C21.9531 16.0352 21.4922 16.0859 21.0938 16.1875C20.6953 16.2812 20.3633 16.4219 20.0977 16.6094C19.832 16.7969 19.6328 17.0234 19.5 17.2891C19.3672 17.5547 19.3008 17.8555 19.3008 18.1914C19.3008 18.5273 19.3789 18.8359 19.5352 19.1172C19.6914 19.3906 19.918 19.6055 20.2148 19.7617C20.5195 19.918 20.8867 19.9961 21.3164 19.9961C21.8945 19.9961 22.3984 19.8789 22.8281 19.6445C23.2656 19.4023 23.6094 19.1094 23.8594 18.7656C24.1094 18.4141 24.2422 18.082 24.2578 17.7695L25.1719 19.0234C25.0781 19.3438 24.918 19.6875 24.6914 20.0547C24.4648 20.4219 24.168 20.7734 23.8008 21.1094C23.4414 21.4375 23.0078 21.707 22.5 21.918C22 22.1289 21.4219 22.2344 20.7656 22.2344C19.9375 22.2344 19.1992 22.0703 18.5508 21.7422C17.9023 21.4062 17.3945 20.957 17.0273 20.3945C16.6602 19.8242 16.4766 19.1797 16.4766 18.4609C16.4766 17.7891 16.6016 17.1953 16.8516 16.6797C17.1094 16.1562 17.4844 15.7188 17.9766 15.3672C18.4766 15.0156 19.0859 14.75 19.8047 14.5703C20.5234 14.3828 21.3438 14.2891 22.2656 14.2891H24.4805ZM32.9062 9.32031V22H30.082V9.32031H32.9062ZM41.1797 9.32031L35.4727 16.9492H32.25L31.875 14.3945H34.2305L37.6523 9.32031H41.1797ZM37.875 22L34.0547 16.4688L36.2812 14.8633L41.5898 22H37.875ZM54.3516 15.9414H51.9141V14.5117H53.8828C54.3828 14.5117 54.7812 14.4453 55.0781 14.3125C55.3828 14.1797 55.5977 13.9961 55.7227 13.7617C55.8555 13.5195 55.9219 13.2383 55.9219 12.918C55.9219 12.6367 55.8555 12.3711 55.7227 12.1211C55.5977 11.8633 55.3828 11.6523 55.0781 11.4883C54.7734 11.3242 54.3594 11.2422 53.8359 11.2422C53.4062 11.2422 53.0195 11.3125 52.6758 11.4531C52.3398 11.5938 52.0742 11.7891 51.8789 12.0391C51.6836 12.2891 51.5859 12.5781 51.5859 12.9062H48.7617C48.7617 12.1172 48.9844 11.4375 49.4297 10.8672C49.8828 10.2969 50.4883 9.85938 51.2461 9.55469C52.0039 9.25 52.8359 9.09766 53.7422 9.09766C54.5156 9.09766 55.2109 9.17969 55.8281 9.34375C56.4453 9.5 56.9688 9.73438 57.3984 10.0469C57.8359 10.3516 58.168 10.7344 58.3945 11.1953C58.6289 11.6484 58.7461 12.1758 58.7461 12.7773C58.7461 13.207 58.6445 13.6133 58.4414 13.9961C58.2383 14.3789 57.9453 14.7188 57.5625 15.0156C57.1797 15.3047 56.7148 15.5312 56.168 15.6953C55.6289 15.8594 55.0234 15.9414 54.3516 15.9414ZM51.9141 15.1211H54.3516C55.1016 15.1211 55.7656 15.1953 56.3438 15.3438C56.9219 15.4844 57.4062 15.6953 57.7969 15.9766C58.1875 16.2578 58.4805 16.6055 58.6758 17.0195C58.8789 17.4258 58.9805 17.8945 58.9805 18.4258C58.9805 19.0195 58.8516 19.5547 58.5938 20.0312C58.3438 20.5 57.9844 20.8984 57.5156 21.2266C57.0547 21.5547 56.5039 21.8047 55.8633 21.9766C55.2227 22.1484 54.5156 22.2344 53.7422 22.2344C52.8984 22.2344 52.0781 22.0938 51.2812 21.8125C50.4922 21.5312 49.8398 21.0977 49.3242 20.5117C48.8164 19.918 48.5625 19.1641 48.5625 18.25H51.3867C51.3867 18.5703 51.4844 18.8711 51.6797 19.1523C51.875 19.4336 52.1562 19.6641 52.5234 19.8438C52.8906 20.0156 53.332 20.1016 53.8477 20.1016C54.3789 20.1016 54.8125 20.0195 55.1484 19.8555C55.4844 19.6836 55.7344 19.4609 55.8984 19.1875C56.0625 18.9062 56.1445 18.6094 56.1445 18.2969C56.1445 17.875 56.0625 17.5352 55.8984 17.2773C55.7344 17.0195 55.4844 16.832 55.1484 16.7148C54.8125 16.5898 54.3906 16.5273 53.8828 16.5273H51.9141V15.1211ZM68.5312 19.457V13.4102C68.5312 12.957 68.4492 12.5664 68.2852 12.2383C68.1211 11.9102 67.8711 11.6562 67.5352 11.4766C67.207 11.2969 66.793 11.207 66.293 11.207C65.832 11.207 65.4336 11.2852 65.0977 11.4414C64.7617 11.5977 64.5 11.8086 64.3125 12.0742C64.125 12.3398 64.0312 12.6406 64.0312 12.9766H61.2188C61.2188 12.4766 61.3398 11.9922 61.582 11.5234C61.8242 11.0547 62.1758 10.6367 62.6367 10.2695C63.0977 9.90234 63.6484 9.61328 64.2891 9.40234C64.9297 9.19141 65.6484 9.08594 66.4453 9.08594C67.3984 9.08594 68.2422 9.24609 68.9766 9.56641C69.7188 9.88672 70.3008 10.3711 70.7227 11.0195C71.1523 11.6602 71.3672 12.4648 71.3672 13.4336V19.0703C71.3672 19.6484 71.4062 20.168 71.4844 20.6289C71.5703 21.082 71.6914 21.4766 71.8477 21.8125V22H68.9531C68.8203 21.6953 68.7148 21.3086 68.6367 20.8398C68.5664 20.3633 68.5312 19.9023 68.5312 19.457ZM68.9414 14.2891L68.9648 16.0352H66.9375C66.4141 16.0352 65.9531 16.0859 65.5547 16.1875C65.1562 16.2812 64.8242 16.4219 64.5586 16.6094C64.293 16.7969 64.0938 17.0234 63.9609 17.2891C63.8281 17.5547 63.7617 17.8555 63.7617 18.1914C63.7617 18.5273 63.8398 18.8359 63.9961 19.1172C64.1523 19.3906 64.3789 19.6055 64.6758 19.7617C64.9805 19.918 65.3477 19.9961 65.7773 19.9961C66.3555 19.9961 66.8594 19.8789 67.2891 19.6445C67.7266 19.4023 68.0703 19.1094 68.3203 18.7656C68.5703 18.4141 68.7031 18.082 68.7188 17.7695L69.6328 19.0234C69.5391 19.3438 69.3789 19.6875 69.1523 20.0547C68.9258 20.4219 68.6289 20.7734 68.2617 21.1094C67.9023 21.4375 67.4688 21.707 66.9609 21.918C66.4609 22.1289 65.8828 22.2344 65.2266 22.2344C64.3984 22.2344 63.6602 22.0703 63.0117 21.7422C62.3633 21.4062 61.8555 20.957 61.4883 20.3945C61.1211 19.8242 60.9375 19.1797 60.9375 18.4609C60.9375 17.7891 61.0625 17.1953 61.3125 16.6797C61.5703 16.1562 61.9453 15.7188 62.4375 15.3672C62.9375 15.0156 63.5469 14.75 64.2656 14.5703C64.9844 14.3828 65.8047 14.2891 66.7266 14.2891H68.9414ZM77.3672 9.32031V22H74.543V9.32031H77.3672ZM85.6406 9.32031L79.9336 16.9492H76.7109L76.3359 14.3945H78.6914L82.1133 9.32031H85.6406ZM82.3359 22L78.5156 16.4688L80.7422 14.8633L86.0508 22H82.3359ZM94.7344 19.457V13.4102C94.7344 12.957 94.6523 12.5664 94.4883 12.2383C94.3242 11.9102 94.0742 11.6562 93.7383 11.4766C93.4102 11.2969 92.9961 11.207 92.4961 11.207C92.0352 11.207 91.6367 11.2852 91.3008 11.4414C90.9648 11.5977 90.7031 11.8086 90.5156 12.0742C90.3281 12.3398 90.2344 12.6406 90.2344 12.9766H87.4219C87.4219 12.4766 87.543 11.9922 87.7852 11.5234C88.0273 11.0547 88.3789 10.6367 88.8398 10.2695C89.3008 9.90234 89.8516 9.61328 90.4922 9.40234C91.1328 9.19141 91.8516 9.08594 92.6484 9.08594C93.6016 9.08594 94.4453 9.24609 95.1797 9.56641C95.9219 9.88672 96.5039 10.3711 96.9258 11.0195C97.3555 11.6602 97.5703 12.4648 97.5703 13.4336V19.0703C97.5703 19.6484 97.6094 20.168 97.6875 20.6289C97.7734 21.082 97.8945 21.4766 98.0508 21.8125V22H95.1562C95.0234 21.6953 94.918 21.3086 94.8398 20.8398C94.7695 20.3633 94.7344 19.9023 94.7344 19.457ZM95.1445 14.2891L95.168 16.0352H93.1406C92.6172 16.0352 92.1562 16.0859 91.7578 16.1875C91.3594 16.2812 91.0273 16.4219 90.7617 16.6094C90.4961 16.7969 90.2969 17.0234 90.1641 17.2891C90.0312 17.5547 89.9648 17.8555 89.9648 18.1914C89.9648 18.5273 90.043 18.8359 90.1992 19.1172C90.3555 19.3906 90.582 19.6055 90.8789 19.7617C91.1836 19.918 91.5508 19.9961 91.9805 19.9961C92.5586 19.9961 93.0625 19.8789 93.4922 19.6445C93.9297 19.4023 94.2734 19.1094 94.5234 18.7656C94.7734 18.4141 94.9062 18.082 94.9219 17.7695L95.8359 19.0234C95.7422 19.3438 95.582 19.6875 95.3555 20.0547C95.1289 20.4219 94.832 20.7734 94.4648 21.1094C94.1055 21.4375 93.6719 21.707 93.1641 21.918C92.6641 22.1289 92.0859 22.2344 91.4297 22.2344C90.6016 22.2344 89.8633 22.0703 89.2148 21.7422C88.5664 21.4062 88.0586 20.957 87.6914 20.3945C87.3242 19.8242 87.1406 19.1797 87.1406 18.4609C87.1406 17.7891 87.2656 17.1953 87.5156 16.6797C87.7734 16.1562 88.1484 15.7188 88.6406 15.3672C89.1406 15.0156 89.75 14.75 90.4688 14.5703C91.1875 14.3828 92.0078 14.2891 92.9297 14.2891H95.1445ZM105.773 15.9414H103.336V14.5117H105.305C105.805 14.5117 106.203 14.4453 106.5 14.3125C106.805 14.1797 107.02 13.9961 107.145 13.7617C107.277 13.5195 107.344 13.2383 107.344 12.918C107.344 12.6367 107.277 12.3711 107.145 12.1211C107.02 11.8633 106.805 11.6523 106.5 11.4883C106.195 11.3242 105.781 11.2422 105.258 11.2422C104.828 11.2422 104.441 11.3125 104.098 11.4531C103.762 11.5938 103.496 11.7891 103.301 12.0391C103.105 12.2891 103.008 12.5781 103.008 12.9062H100.184C100.184 12.1172 100.406 11.4375 100.852 10.8672C101.305 10.2969 101.91 9.85938 102.668 9.55469C103.426 9.25 104.258 9.09766 105.164 9.09766C105.938 9.09766 106.633 9.17969 107.25 9.34375C107.867 9.5 108.391 9.73438 108.82 10.0469C109.258 10.3516 109.59 10.7344 109.816 11.1953C110.051 11.6484 110.168 12.1758 110.168 12.7773C110.168 13.207 110.066 13.6133 109.863 13.9961C109.66 14.3789 109.367 14.7188 108.984 15.0156C108.602 15.3047 108.137 15.5312 107.59 15.6953C107.051 15.8594 106.445 15.9414 105.773 15.9414ZM103.336 15.1211H105.773C106.523 15.1211 107.188 15.1953 107.766 15.3438C108.344 15.4844 108.828 15.6953 109.219 15.9766C109.609 16.2578 109.902 16.6055 110.098 17.0195C110.301 17.4258 110.402 17.8945 110.402 18.4258C110.402 19.0195 110.273 19.5547 110.016 20.0312C109.766 20.5 109.406 20.8984 108.938 21.2266C108.477 21.5547 107.926 21.8047 107.285 21.9766C106.645 22.1484 105.938 22.2344 105.164 22.2344C104.32 22.2344 103.5 22.0938 102.703 21.8125C101.914 21.5312 101.262 21.0977 100.746 20.5117C100.238 19.918 99.9844 19.1641 99.9844 18.25H102.809C102.809 18.5703 102.906 18.8711 103.102 19.1523C103.297 19.4336 103.578 19.6641 103.945 19.8438C104.312 20.0156 104.754 20.1016 105.27 20.1016C105.801 20.1016 106.234 20.0195 106.57 19.8555C106.906 19.6836 107.156 19.4609 107.32 19.1875C107.484 18.9062 107.566 18.6094 107.566 18.2969C107.566 17.875 107.484 17.5352 107.32 17.2773C107.156 17.0195 106.906 16.832 106.57 16.7148C106.234 16.5898 105.812 16.5273 105.305 16.5273H103.336V15.1211ZM119.953 19.457V13.4102C119.953 12.957 119.871 12.5664 119.707 12.2383C119.543 11.9102 119.293 11.6562 118.957 11.4766C118.629 11.2969 118.215 11.207 117.715 11.207C117.254 11.207 116.855 11.2852 116.52 11.4414C116.184 11.5977 115.922 11.8086 115.734 12.0742C115.547 12.3398 115.453 12.6406 115.453 12.9766H112.641C112.641 12.4766 112.762 11.9922 113.004 11.5234C113.246 11.0547 113.598 10.6367 114.059 10.2695C114.52 9.90234 115.07 9.61328 115.711 9.40234C116.352 9.19141 117.07 9.08594 117.867 9.08594C118.82 9.08594 119.664 9.24609 120.398 9.56641C121.141 9.88672 121.723 10.3711 122.145 11.0195C122.574 11.6602 122.789 12.4648 122.789 13.4336V19.0703C122.789 19.6484 122.828 20.168 122.906 20.6289C122.992 21.082 123.113 21.4766 123.27 21.8125V22H120.375C120.242 21.6953 120.137 21.3086 120.059 20.8398C119.988 20.3633 119.953 19.9023 119.953 19.457ZM120.363 14.2891L120.387 16.0352H118.359C117.836 16.0352 117.375 16.0859 116.977 16.1875C116.578 16.2812 116.246 16.4219 115.98 16.6094C115.715 16.7969 115.516 17.0234 115.383 17.2891C115.25 17.5547 115.184 17.8555 115.184 18.1914C115.184 18.5273 115.262 18.8359 115.418 19.1172C115.574 19.3906 115.801 19.6055 116.098 19.7617C116.402 19.918 116.77 19.9961 117.199 19.9961C117.777 19.9961 118.281 19.8789 118.711 19.6445C119.148 19.4023 119.492 19.1094 119.742 18.7656C119.992 18.4141 120.125 18.082 120.141 17.7695L121.055 19.0234C120.961 19.3438 120.801 19.6875 120.574 20.0547C120.348 20.4219 120.051 20.7734 119.684 21.1094C119.324 21.4375 118.891 21.707 118.383 21.918C117.883 22.1289 117.305 22.2344 116.648 22.2344C115.82 22.2344 115.082 22.0703 114.434 21.7422C113.785 21.4062 113.277 20.957 112.91 20.3945C112.543 19.8242 112.359 19.1797 112.359 18.4609C112.359 17.7891 112.484 17.1953 112.734 16.6797C112.992 16.1562 113.367 15.7188 113.859 15.3672C114.359 15.0156 114.969 14.75 115.688 14.5703C116.406 14.3828 117.227 14.2891 118.148 14.2891H120.363ZM131.438 9.32031V22H128.602V9.32031H131.438ZM135.598 9.32031V11.5469H124.512V9.32031H135.598ZM139.582 13.3516H143.32C144.414 13.3516 145.344 13.5352 146.109 13.9023C146.875 14.2695 147.457 14.7812 147.855 15.4375C148.262 16.0859 148.465 16.8281 148.465 17.6641C148.465 18.2812 148.352 18.8555 148.125 19.3867C147.898 19.9102 147.562 20.3672 147.117 20.7578C146.68 21.1484 146.141 21.4531 145.5 21.6719C144.867 21.8906 144.141 22 143.32 22H137.707V9.32031H140.543V19.7617H143.32C143.883 19.7617 144.332 19.6641 144.668 19.4688C145.004 19.2734 145.246 19.0195 145.395 18.707C145.551 18.3945 145.629 18.0625 145.629 17.7109C145.629 17.3516 145.551 17.0117 145.395 16.6914C145.246 16.3711 145.004 16.1094 144.668 15.9062C144.332 15.7031 143.883 15.6016 143.32 15.6016H139.582V13.3516ZM156.012 16.9727H153.398C153.406 16.2461 153.469 15.6367 153.586 15.1445C153.703 14.6445 153.898 14.1914 154.172 13.7852C154.453 13.3789 154.824 12.9492 155.285 12.4961C155.645 12.1523 155.969 11.8281 156.258 11.5234C156.547 11.2109 156.777 10.8828 156.949 10.5391C157.121 10.1875 157.207 9.78516 157.207 9.33203C157.207 8.83984 157.125 8.42188 156.961 8.07812C156.797 7.73438 156.555 7.47266 156.234 7.29297C155.922 7.11328 155.531 7.02344 155.062 7.02344C154.672 7.02344 154.305 7.10156 153.961 7.25781C153.617 7.40625 153.34 7.64063 153.129 7.96094C152.918 8.27344 152.805 8.6875 152.789 9.20312H149.965C149.98 8.21875 150.215 7.39062 150.668 6.71875C151.121 6.04688 151.73 5.54297 152.496 5.20703C153.262 4.87109 154.117 4.70312 155.062 4.70312C156.109 4.70312 157.004 4.88281 157.746 5.24219C158.488 5.59375 159.055 6.10938 159.445 6.78906C159.844 7.46094 160.043 8.27344 160.043 9.22656C160.043 9.91406 159.906 10.5391 159.633 11.1016C159.359 11.6562 159.004 12.1758 158.566 12.6602C158.129 13.1367 157.656 13.6133 157.148 14.0898C156.711 14.4883 156.414 14.9219 156.258 15.3906C156.102 15.8516 156.02 16.3789 156.012 16.9727ZM153.164 20.6289C153.164 20.207 153.309 19.8516 153.598 19.5625C153.887 19.2656 154.281 19.1172 154.781 19.1172C155.281 19.1172 155.676 19.2656 155.965 19.5625C156.254 19.8516 156.398 20.207 156.398 20.6289C156.398 21.0508 156.254 21.4102 155.965 21.707C155.676 21.9961 155.281 22.1406 154.781 22.1406C154.281 22.1406 153.887 21.9961 153.598 21.707C153.309 21.4102 153.164 21.0508 153.164 20.6289Z" fill="white"/>
</svg>
