<svg width="100" height="100" viewBox="0 0 100 100" fill="none" xmlns="http://www.w3.org/2000/svg">
<rect width="100" height="100" rx="20" fill="#FEF600"/>
<path d="M45.4297 45.8203H49.1562C50.2188 45.8203 51.0938 45.6328 51.7812 45.2578C52.4844 44.8828 53 44.3516 53.3281 43.6641C53.6719 42.9766 53.8438 42.1719 53.8438 41.25C53.8438 40.4531 53.6875 39.7422 53.375 39.1172C53.0625 38.4922 52.5859 38 51.9453 37.6406C51.3203 37.2656 50.5078 37.0781 49.5078 37.0781C48.7891 37.0781 48.1016 37.2266 47.4453 37.5234C46.8047 37.8047 46.2812 38.2188 45.875 38.7656C45.4688 39.2969 45.2656 39.9375 45.2656 40.6875H37.9297C37.9297 38.7812 38.4453 37.1328 39.4766 35.7422C40.5234 34.3516 41.9062 33.2812 43.625 32.5312C45.3594 31.7656 47.25 31.3828 49.2969 31.3828C51.6562 31.3828 53.7266 31.7578 55.5078 32.5078C57.3047 33.2422 58.6953 34.3359 59.6797 35.7891C60.6797 37.2266 61.1797 39.0078 61.1797 41.1328C61.1797 42.2422 60.9141 43.3125 60.3828 44.3438C59.8672 45.3594 59.125 46.2656 58.1562 47.0625C57.2031 47.8438 56.0625 48.4688 54.7344 48.9375C53.4219 49.3906 51.9609 49.6172 50.3516 49.6172H45.4297V45.8203ZM45.4297 51.3281V47.6016H50.3516C52.1328 47.6016 53.7266 47.8047 55.1328 48.2109C56.5391 48.6172 57.7344 49.2031 58.7188 49.9688C59.7031 50.7344 60.4531 51.6641 60.9688 52.7578C61.4844 53.8516 61.7422 55.0703 61.7422 56.4141C61.7422 58.0078 61.4297 59.4297 60.8047 60.6797C60.1797 61.9297 59.3047 62.9844 58.1797 63.8438C57.0547 64.7031 55.7344 65.3594 54.2188 65.8125C52.7031 66.25 51.0625 66.4688 49.2969 66.4688C47.875 66.4688 46.4609 66.2734 45.0547 65.8828C43.6484 65.4922 42.375 64.8984 41.2344 64.1016C40.0938 63.2891 39.1797 62.2656 38.4922 61.0312C37.8047 59.7812 37.4609 58.2969 37.4609 56.5781H44.7969C44.7969 57.375 45 58.0938 45.4062 58.7344C45.8281 59.3594 46.3984 59.8594 47.1172 60.2344C47.8516 60.5938 48.6484 60.7734 49.5078 60.7734C50.5391 60.7734 51.4141 60.5859 52.1328 60.2109C52.8672 59.8203 53.4219 59.2891 53.7969 58.6172C54.1875 57.9453 54.3828 57.1719 54.3828 56.2969C54.3828 55.1094 54.1719 54.1562 53.75 53.4375C53.3438 52.7031 52.75 52.1719 51.9688 51.8438C51.1875 51.5 50.25 51.3281 49.1562 51.3281H45.4297Z" fill="#262727"/>
</svg>
