<svg width="100" height="100" viewBox="0 0 100 100" fill="none" xmlns="http://www.w3.org/2000/svg">
<rect width="100" height="100" rx="20" fill="#FEF600"/>
<path d="M44.9141 50.625L39.1016 49.2422L41.0938 31.875H60.6406V37.6641H47.0938L46.2734 44.8594C46.6953 44.6094 47.3594 44.3359 48.2656 44.0391C49.1719 43.7266 50.1875 43.5703 51.3125 43.5703C52.9844 43.5703 54.4688 43.8281 55.7656 44.3438C57.0625 44.8594 58.1562 45.6094 59.0469 46.5938C59.9531 47.5625 60.6328 48.7578 61.0859 50.1797C61.5547 51.6016 61.7891 53.2188 61.7891 55.0312C61.7891 56.5312 61.5547 57.9688 61.0859 59.3438C60.6172 60.7031 59.8984 61.9219 58.9297 63C57.9766 64.0625 56.7656 64.9062 55.2969 65.5312C53.8281 66.1562 52.1016 66.4688 50.1172 66.4688C48.6172 66.4688 47.1641 66.2422 45.7578 65.7891C44.3516 65.3359 43.0859 64.6797 41.9609 63.8203C40.8516 62.9453 39.9688 61.8828 39.3125 60.6328C38.6719 59.3828 38.3438 57.9766 38.3281 56.4141H45.6406C45.7188 57.3203 45.9453 58.1016 46.3203 58.7578C46.6953 59.3984 47.2031 59.8984 47.8438 60.2578C48.4844 60.6016 49.2266 60.7734 50.0703 60.7734C50.8828 60.7734 51.5703 60.6172 52.1328 60.3047C52.6953 59.9766 53.1406 59.5312 53.4688 58.9688C53.8125 58.4062 54.0625 57.75 54.2188 57C54.375 56.25 54.4531 55.4453 54.4531 54.5859C54.4531 53.6953 54.3516 52.8984 54.1484 52.1953C53.9453 51.4766 53.6328 50.8672 53.2109 50.3672C52.7891 49.8516 52.25 49.4609 51.5938 49.1953C50.9531 48.9141 50.1797 48.7734 49.2734 48.7734C48.0859 48.7734 47.1562 48.9688 46.4844 49.3594C45.8125 49.75 45.2891 50.1719 44.9141 50.625Z" fill="#262727"/>
</svg>
