<svg width="100" height="100" viewBox="0 0 100 100" fill="none" xmlns="http://www.w3.org/2000/svg">
<rect width="100" height="100" rx="20" fill="#FEF600"/>
<path d="M61.9531 60.3047V66H38.375V61.1719L49.3906 49.5C50.4219 48.3125 51.2422 47.2656 51.8516 46.3594C52.4766 45.4531 52.9297 44.6328 53.2109 43.8984C53.4922 43.1484 53.6328 42.4609 53.6328 41.8359C53.6328 40.8203 53.4688 39.9609 53.1406 39.2578C52.8281 38.5547 52.3672 38.0156 51.7578 37.6406C51.1484 37.2656 50.4062 37.0781 49.5312 37.0781C48.5938 37.0781 47.7891 37.3203 47.1172 37.8047C46.4453 38.2891 45.9297 38.9609 45.5703 39.8203C45.2109 40.6641 45.0312 41.625 45.0312 42.7031H37.6719C37.6719 40.625 38.1719 38.7344 39.1719 37.0312C40.1719 35.3125 41.5703 33.9453 43.3672 32.9297C45.1641 31.8984 47.2656 31.3828 49.6719 31.3828C52.1406 31.3828 54.2109 31.7734 55.8828 32.5547C57.5547 33.3359 58.8203 34.4531 59.6797 35.9062C60.5391 37.3594 60.9688 39.1094 60.9688 41.1562C60.9688 42.3125 60.7812 43.4297 60.4062 44.5078C60.0469 45.5859 59.5234 46.6562 58.8359 47.7188C58.1484 48.7812 57.3203 49.8672 56.3516 50.9766C55.3828 52.0703 54.2891 53.2266 53.0703 54.4453L47.9141 60.3047H61.9531Z" fill="#262727"/>
</svg>
