<svg width="100" height="100" viewBox="0 0 100 100" fill="none" xmlns="http://www.w3.org/2000/svg">
<rect width="100" height="100" rx="20" fill="#FEF600"/>
<path d="M55.9766 31.4531H57.1016V37.2656H56.6797C55.0391 37.2656 53.5391 37.5 52.1797 37.9688C50.8359 38.4375 49.6719 39.1328 48.6875 40.0547C47.7031 40.9609 46.9453 42.0859 46.4141 43.4297C45.8984 44.7578 45.6406 46.2891 45.6406 48.0234V53.8359C45.6406 55.0078 45.7422 56.0312 45.9453 56.9062C46.1641 57.7656 46.4766 58.4844 46.8828 59.0625C47.3047 59.625 47.8125 60.0547 48.4062 60.3516C49 60.6328 49.6719 60.7734 50.4219 60.7734C51.0938 60.7734 51.7109 60.625 52.2734 60.3281C52.8359 60.0312 53.3203 59.6094 53.7266 59.0625C54.1328 58.5156 54.4453 57.8828 54.6641 57.1641C54.8828 56.4297 54.9922 55.6328 54.9922 54.7734C54.9922 53.8672 54.875 53.0469 54.6406 52.3125C54.4219 51.5625 54.1016 50.9219 53.6797 50.3906C53.2734 49.8594 52.7734 49.4531 52.1797 49.1719C51.5859 48.875 50.9297 48.7266 50.2109 48.7266C49.1797 48.7266 48.2891 48.9609 47.5391 49.4297C46.7891 49.8984 46.2109 50.5 45.8047 51.2344C45.3984 51.9688 45.1875 52.7188 45.1719 53.4844L43.2266 51.8672C43.2266 50.8047 43.4375 49.7578 43.8594 48.7266C44.2969 47.6797 44.9141 46.7344 45.7109 45.8906C46.5078 45.0312 47.4844 44.3516 48.6406 43.8516C49.8125 43.3359 51.1484 43.0781 52.6484 43.0781C54.2266 43.0781 55.6172 43.3828 56.8203 43.9922C58.0234 44.5859 59.0312 45.4141 59.8438 46.4766C60.6719 47.5391 61.2891 48.7812 61.6953 50.2031C62.1172 51.6094 62.3281 53.1172 62.3281 54.7266C62.3281 56.3828 62.0391 57.9297 61.4609 59.3672C60.8984 60.7891 60.1016 62.0312 59.0703 63.0938C58.0391 64.1562 56.8047 64.9844 55.3672 65.5781C53.9453 66.1719 52.3594 66.4688 50.6094 66.4688C48.7969 66.4688 47.1406 66.1484 45.6406 65.5078C44.1562 64.8672 42.8594 63.9531 41.75 62.7656C40.6562 61.5625 39.8047 60.125 39.1953 58.4531C38.6016 56.7812 38.3047 54.9062 38.3047 52.8281V50.0859C38.3047 47.2422 38.7422 44.6797 39.6172 42.3984C40.5078 40.1172 41.7422 38.1641 43.3203 36.5391C44.9141 34.8984 46.7891 33.6406 48.9453 32.7656C51.1016 31.8906 53.4453 31.4531 55.9766 31.4531Z" fill="#262727"/>
</svg>
