<svg width="91" height="28" viewBox="0 0 91 28" fill="none" xmlns="http://www.w3.org/2000/svg">
<path d="M4.72266 4.9375V22H1.79297V4.9375H4.72266ZM14.9883 4.9375L8.05078 14.6641H3.89062L3.49219 12.1094H6.42188L11.3906 4.9375H14.9883ZM11.9883 22L6.46875 14.2188L8.36719 11.957L15.5156 22H11.9883ZM24.0703 19.457V13.4102C24.0703 12.957 23.9883 12.5664 23.8242 12.2383C23.6602 11.9102 23.4102 11.6562 23.0742 11.4766C22.7461 11.2969 22.332 11.207 21.832 11.207C21.3711 11.207 20.9727 11.2852 20.6367 11.4414C20.3008 11.5977 20.0391 11.8086 19.8516 12.0742C19.6641 12.3398 19.5703 12.6406 19.5703 12.9766H16.7578C16.7578 12.4766 16.8789 11.9922 17.1211 11.5234C17.3633 11.0547 17.7148 10.6367 18.1758 10.2695C18.6367 9.90234 19.1875 9.61328 19.8281 9.40234C20.4688 9.19141 21.1875 9.08594 21.9844 9.08594C22.9375 9.08594 23.7812 9.24609 24.5156 9.56641C25.2578 9.88672 25.8398 10.3711 26.2617 11.0195C26.6914 11.6602 26.9062 12.4648 26.9062 13.4336V19.0703C26.9062 19.6484 26.9453 20.168 27.0234 20.6289C27.1094 21.082 27.2305 21.4766 27.3867 21.8125V22H24.4922C24.3594 21.6953 24.2539 21.3086 24.1758 20.8398C24.1055 20.3633 24.0703 19.9023 24.0703 19.457ZM24.4805 14.2891L24.5039 16.0352H22.4766C21.9531 16.0352 21.4922 16.0859 21.0938 16.1875C20.6953 16.2812 20.3633 16.4219 20.0977 16.6094C19.832 16.7969 19.6328 17.0234 19.5 17.2891C19.3672 17.5547 19.3008 17.8555 19.3008 18.1914C19.3008 18.5273 19.3789 18.8359 19.5352 19.1172C19.6914 19.3906 19.918 19.6055 20.2148 19.7617C20.5195 19.918 20.8867 19.9961 21.3164 19.9961C21.8945 19.9961 22.3984 19.8789 22.8281 19.6445C23.2656 19.4023 23.6094 19.1094 23.8594 18.7656C24.1094 18.4141 24.2422 18.082 24.2578 17.7695L25.1719 19.0234C25.0781 19.3438 24.918 19.6875 24.6914 20.0547C24.4648 20.4219 24.168 20.7734 23.8008 21.1094C23.4414 21.4375 23.0078 21.707 22.5 21.918C22 22.1289 21.4219 22.2344 20.7656 22.2344C19.9375 22.2344 19.1992 22.0703 18.5508 21.7422C17.9023 21.4062 17.3945 20.957 17.0273 20.3945C16.6602 19.8242 16.4766 19.1797 16.4766 18.4609C16.4766 17.7891 16.6016 17.1953 16.8516 16.6797C17.1094 16.1562 17.4844 15.7188 17.9766 15.3672C18.4766 15.0156 19.0859 14.75 19.8047 14.5703C20.5234 14.3828 21.3438 14.2891 22.2656 14.2891H24.4805ZM35.5547 9.32031V22H32.7188V9.32031H35.5547ZM39.7148 9.32031V11.5469H28.6289V9.32031H39.7148ZM48.5625 19.457V13.4102C48.5625 12.957 48.4805 12.5664 48.3164 12.2383C48.1523 11.9102 47.9023 11.6562 47.5664 11.4766C47.2383 11.2969 46.8242 11.207 46.3242 11.207C45.8633 11.207 45.4648 11.2852 45.1289 11.4414C44.793 11.5977 44.5312 11.8086 44.3438 12.0742C44.1562 12.3398 44.0625 12.6406 44.0625 12.9766H41.25C41.25 12.4766 41.3711 11.9922 41.6133 11.5234C41.8555 11.0547 42.207 10.6367 42.668 10.2695C43.1289 9.90234 43.6797 9.61328 44.3203 9.40234C44.9609 9.19141 45.6797 9.08594 46.4766 9.08594C47.4297 9.08594 48.2734 9.24609 49.0078 9.56641C49.75 9.88672 50.332 10.3711 50.7539 11.0195C51.1836 11.6602 51.3984 12.4648 51.3984 13.4336V19.0703C51.3984 19.6484 51.4375 20.168 51.5156 20.6289C51.6016 21.082 51.7227 21.4766 51.8789 21.8125V22H48.9844C48.8516 21.6953 48.7461 21.3086 48.668 20.8398C48.5977 20.3633 48.5625 19.9023 48.5625 19.457ZM48.9727 14.2891L48.9961 16.0352H46.9688C46.4453 16.0352 45.9844 16.0859 45.5859 16.1875C45.1875 16.2812 44.8555 16.4219 44.5898 16.6094C44.3242 16.7969 44.125 17.0234 43.9922 17.2891C43.8594 17.5547 43.793 17.8555 43.793 18.1914C43.793 18.5273 43.8711 18.8359 44.0273 19.1172C44.1836 19.3906 44.4102 19.6055 44.707 19.7617C45.0117 19.918 45.3789 19.9961 45.8086 19.9961C46.3867 19.9961 46.8906 19.8789 47.3203 19.6445C47.7578 19.4023 48.1016 19.1094 48.3516 18.7656C48.6016 18.4141 48.7344 18.082 48.75 17.7695L49.6641 19.0234C49.5703 19.3438 49.4102 19.6875 49.1836 20.0547C48.957 20.4219 48.6602 20.7734 48.293 21.1094C47.9336 21.4375 47.5 21.707 46.9922 21.918C46.4922 22.1289 45.9141 22.2344 45.2578 22.2344C44.4297 22.2344 43.6914 22.0703 43.043 21.7422C42.3945 21.4062 41.8867 20.957 41.5195 20.3945C41.1523 19.8242 40.9688 19.1797 40.9688 18.4609C40.9688 17.7891 41.0938 17.1953 41.3438 16.6797C41.6016 16.1562 41.9766 15.7188 42.4688 15.3672C42.9688 15.0156 43.5781 14.75 44.2969 14.5703C45.0156 14.3828 45.8359 14.2891 46.7578 14.2891H48.9727ZM62.8711 9.32031V11.5703H56.6836V9.32031H62.8711ZM65.0859 9.32031V22H62.2617V9.32031H65.0859ZM55.9922 9.32031H58.7812L58.4414 15.5898C58.3945 16.5195 58.3008 17.3398 58.1602 18.0508C58.0273 18.7539 57.8477 19.3594 57.6211 19.8672C57.3945 20.3672 57.1172 20.7734 56.7891 21.0859C56.4609 21.3984 56.0781 21.6289 55.6406 21.7773C55.2031 21.9258 54.7109 22 54.1641 22H53.2852L53.2734 19.6797L53.7188 19.6445C54.0078 19.6211 54.2578 19.5469 54.4688 19.4219C54.6797 19.2891 54.8594 19.1016 55.0078 18.8594C55.1641 18.6172 55.2891 18.3047 55.3828 17.9219C55.4844 17.5391 55.5625 17.0859 55.6172 16.5625C55.6797 16.0391 55.7266 15.4297 55.7578 14.7344L55.9922 9.32031ZM67.5469 15.8008V15.5312C67.5469 14.6172 67.6797 13.7695 67.9453 12.9883C68.2109 12.1992 68.5938 11.5156 69.0938 10.9375C69.6016 10.3516 70.2188 9.89844 70.9453 9.57812C71.6797 9.25 72.5078 9.08594 73.4297 9.08594C74.3594 9.08594 75.1875 9.25 75.9141 9.57812C76.6484 9.89844 77.2695 10.3516 77.7773 10.9375C78.2852 11.5156 78.6719 12.1992 78.9375 12.9883C79.2031 13.7695 79.3359 14.6172 79.3359 15.5312V15.8008C79.3359 16.7148 79.2031 17.5625 78.9375 18.3438C78.6719 19.125 78.2852 19.8086 77.7773 20.3945C77.2695 20.9727 76.6523 21.4258 75.9258 21.7539C75.1992 22.0742 74.375 22.2344 73.4531 22.2344C72.5234 22.2344 71.6914 22.0742 70.957 21.7539C70.2305 21.4258 69.6133 20.9727 69.1055 20.3945C68.5977 19.8086 68.2109 19.125 67.9453 18.3438C67.6797 17.5625 67.5469 16.7148 67.5469 15.8008ZM70.3711 15.5312V15.8008C70.3711 16.3711 70.4297 16.9102 70.5469 17.418C70.6641 17.9258 70.8477 18.3711 71.0977 18.7539C71.3477 19.1367 71.668 19.4375 72.0586 19.6562C72.4492 19.875 72.9141 19.9844 73.4531 19.9844C73.9766 19.9844 74.4297 19.875 74.8125 19.6562C75.2031 19.4375 75.5234 19.1367 75.7734 18.7539C76.0234 18.3711 76.207 17.9258 76.3242 17.418C76.4492 16.9102 76.5117 16.3711 76.5117 15.8008V15.5312C76.5117 14.9688 76.4492 14.4375 76.3242 13.9375C76.207 13.4297 76.0195 12.9805 75.7617 12.5898C75.5117 12.1992 75.1914 11.8945 74.8008 11.6758C74.418 11.4492 73.9609 11.3359 73.4297 11.3359C72.8984 11.3359 72.4375 11.4492 72.0469 11.6758C71.6641 11.8945 71.3477 12.1992 71.0977 12.5898C70.8477 12.9805 70.6641 13.4297 70.5469 13.9375C70.4297 14.4375 70.3711 14.9688 70.3711 15.5312ZM90.1406 9.32031V11.5703H84.6094V22H81.7852V9.32031H90.1406Z" fill="white"/>
</svg>
