<svg width="177" height="28" viewBox="0 0 177 28" fill="none" xmlns="http://www.w3.org/2000/svg">
<path d="M15.2344 4.9375V22H12.3047V7.28125H4.72266V22H1.79297V4.9375H15.2344ZM21.3281 11.7578V26.875H18.5039V9.32031H21.1055L21.3281 11.7578ZM29.5898 15.543V15.7891C29.5898 16.7109 29.4805 17.5664 29.2617 18.3555C29.0508 19.1367 28.7344 19.8203 28.3125 20.4062C27.8984 20.9844 27.3867 21.4336 26.7773 21.7539C26.168 22.0742 25.4648 22.2344 24.668 22.2344C23.8789 22.2344 23.1875 22.0898 22.5938 21.8008C22.0078 21.5039 21.5117 21.0859 21.1055 20.5469C20.6992 20.0078 20.3711 19.375 20.1211 18.6484C19.8789 17.9141 19.707 17.1094 19.6055 16.2344V15.2852C19.707 14.3555 19.8789 13.5117 20.1211 12.7539C20.3711 11.9961 20.6992 11.3438 21.1055 10.7969C21.5117 10.25 22.0078 9.82812 22.5938 9.53125C23.1797 9.23438 23.8633 9.08594 24.6445 9.08594C25.4414 9.08594 26.1484 9.24219 26.7656 9.55469C27.3828 9.85938 27.9023 10.2969 28.3242 10.8672C28.7461 11.4297 29.0625 12.1094 29.2734 12.9062C29.4844 13.6953 29.5898 14.5742 29.5898 15.543ZM26.7656 15.7891V15.543C26.7656 14.957 26.7109 14.4141 26.6016 13.9141C26.4922 13.4062 26.3203 12.9609 26.0859 12.5781C25.8516 12.1953 25.5508 11.8984 25.1836 11.6875C24.8242 11.4688 24.3906 11.3594 23.8828 11.3594C23.3828 11.3594 22.9531 11.4453 22.5938 11.6172C22.2344 11.7812 21.9336 12.0117 21.6914 12.3086C21.4492 12.6055 21.2617 12.9531 21.1289 13.3516C20.9961 13.7422 20.9023 14.168 20.8477 14.6289V16.9023C20.9414 17.4648 21.1016 17.9805 21.3281 18.4492C21.5547 18.918 21.875 19.293 22.2891 19.5742C22.7109 19.8477 23.25 19.9844 23.9062 19.9844C24.4141 19.9844 24.8477 19.875 25.207 19.6562C25.5664 19.4375 25.8594 19.1367 26.0859 18.7539C26.3203 18.3633 26.4922 17.9141 26.6016 17.4062C26.7109 16.8984 26.7656 16.3594 26.7656 15.7891ZM31.4531 15.8008V15.5312C31.4531 14.6172 31.5859 13.7695 31.8516 12.9883C32.1172 12.1992 32.5 11.5156 33 10.9375C33.5078 10.3516 34.125 9.89844 34.8516 9.57812C35.5859 9.25 36.4141 9.08594 37.3359 9.08594C38.2656 9.08594 39.0938 9.25 39.8203 9.57812C40.5547 9.89844 41.1758 10.3516 41.6836 10.9375C42.1914 11.5156 42.5781 12.1992 42.8438 12.9883C43.1094 13.7695 43.2422 14.6172 43.2422 15.5312V15.8008C43.2422 16.7148 43.1094 17.5625 42.8438 18.3438C42.5781 19.125 42.1914 19.8086 41.6836 20.3945C41.1758 20.9727 40.5586 21.4258 39.832 21.7539C39.1055 22.0742 38.2812 22.2344 37.3594 22.2344C36.4297 22.2344 35.5977 22.0742 34.8633 21.7539C34.1367 21.4258 33.5195 20.9727 33.0117 20.3945C32.5039 19.8086 32.1172 19.125 31.8516 18.3438C31.5859 17.5625 31.4531 16.7148 31.4531 15.8008ZM34.2773 15.5312V15.8008C34.2773 16.3711 34.3359 16.9102 34.4531 17.418C34.5703 17.9258 34.7539 18.3711 35.0039 18.7539C35.2539 19.1367 35.5742 19.4375 35.9648 19.6562C36.3555 19.875 36.8203 19.9844 37.3594 19.9844C37.8828 19.9844 38.3359 19.875 38.7188 19.6562C39.1094 19.4375 39.4297 19.1367 39.6797 18.7539C39.9297 18.3711 40.1133 17.9258 40.2305 17.418C40.3555 16.9102 40.418 16.3711 40.418 15.8008V15.5312C40.418 14.9688 40.3555 14.4375 40.2305 13.9375C40.1133 13.4297 39.9258 12.9805 39.668 12.5898C39.418 12.1992 39.0977 11.8945 38.707 11.6758C38.3242 11.4492 37.8672 11.3359 37.3359 11.3359C36.8047 11.3359 36.3438 11.4492 35.9531 11.6758C35.5703 11.8945 35.2539 12.1992 35.0039 12.5898C34.7539 12.9805 34.5703 13.4297 34.4531 13.9375C34.3359 14.4375 34.2773 14.9688 34.2773 15.5312ZM48.5273 17.875L53.5078 9.32031H56.332V22H53.5078V13.4336L48.5273 22H45.7031V9.32031H48.5273V17.875ZM64.5703 15.9414H62.1328V14.5117H64.1016C64.6016 14.5117 65 14.4453 65.2969 14.3125C65.6016 14.1797 65.8164 13.9961 65.9414 13.7617C66.0742 13.5195 66.1406 13.2383 66.1406 12.918C66.1406 12.6367 66.0742 12.3711 65.9414 12.1211C65.8164 11.8633 65.6016 11.6523 65.2969 11.4883C64.9922 11.3242 64.5781 11.2422 64.0547 11.2422C63.625 11.2422 63.2383 11.3125 62.8945 11.4531C62.5586 11.5938 62.293 11.7891 62.0977 12.0391C61.9023 12.2891 61.8047 12.5781 61.8047 12.9062H58.9805C58.9805 12.1172 59.2031 11.4375 59.6484 10.8672C60.1016 10.2969 60.707 9.85938 61.4648 9.55469C62.2227 9.25 63.0547 9.09766 63.9609 9.09766C64.7344 9.09766 65.4297 9.17969 66.0469 9.34375C66.6641 9.5 67.1875 9.73438 67.6172 10.0469C68.0547 10.3516 68.3867 10.7344 68.6133 11.1953C68.8477 11.6484 68.9648 12.1758 68.9648 12.7773C68.9648 13.207 68.8633 13.6133 68.6602 13.9961C68.457 14.3789 68.1641 14.7188 67.7812 15.0156C67.3984 15.3047 66.9336 15.5312 66.3867 15.6953C65.8477 15.8594 65.2422 15.9414 64.5703 15.9414ZM62.1328 15.1211H64.5703C65.3203 15.1211 65.9844 15.1953 66.5625 15.3438C67.1406 15.4844 67.625 15.6953 68.0156 15.9766C68.4062 16.2578 68.6992 16.6055 68.8945 17.0195C69.0977 17.4258 69.1992 17.8945 69.1992 18.4258C69.1992 19.0195 69.0703 19.5547 68.8125 20.0312C68.5625 20.5 68.2031 20.8984 67.7344 21.2266C67.2734 21.5547 66.7227 21.8047 66.082 21.9766C65.4414 22.1484 64.7344 22.2344 63.9609 22.2344C63.1172 22.2344 62.2969 22.0938 61.5 21.8125C60.7109 21.5312 60.0586 21.0977 59.543 20.5117C59.0352 19.918 58.7812 19.1641 58.7812 18.25H61.6055C61.6055 18.5703 61.7031 18.8711 61.8984 19.1523C62.0938 19.4336 62.375 19.6641 62.7422 19.8438C63.1094 20.0156 63.5508 20.1016 64.0664 20.1016C64.5977 20.1016 65.0312 20.0195 65.3672 19.8555C65.7031 19.6836 65.9531 19.4609 66.1172 19.1875C66.2812 18.9062 66.3633 18.6094 66.3633 18.2969C66.3633 17.875 66.2812 17.5352 66.1172 17.2773C65.9531 17.0195 65.7031 16.832 65.3672 16.7148C65.0312 16.5898 64.6094 16.5273 64.1016 16.5273H62.1328V15.1211ZM77.7656 16.5742H73.7109L73.6875 14.582H77.0156C77.5625 14.582 78.0117 14.5273 78.3633 14.418C78.7227 14.3086 78.9883 14.1445 79.1602 13.9258C79.332 13.6992 79.418 13.4258 79.418 13.1055C79.418 12.8398 79.3672 12.6094 79.2656 12.4141C79.1641 12.2109 79.0078 12.0469 78.7969 11.9219C78.5938 11.7891 78.3359 11.6953 78.0234 11.6406C77.7188 11.5781 77.3633 11.5469 76.957 11.5469H74.6484V22H71.8242V9.32031H76.957C77.7695 9.32031 78.5 9.39062 79.1484 9.53125C79.8047 9.67188 80.3633 9.88672 80.8242 10.1758C81.2852 10.4648 81.6367 10.832 81.8789 11.2773C82.1289 11.7148 82.2539 12.2305 82.2539 12.8242C82.2539 13.2148 82.168 13.582 81.9961 13.9258C81.832 14.2695 81.5859 14.5742 81.2578 14.8398C80.9297 15.1055 80.5273 15.3242 80.0508 15.4961C79.5742 15.6602 79.0273 15.7617 78.4102 15.8008L77.7656 16.5742ZM77.7656 22H72.8906L74.0156 19.7734H77.7656C78.2656 19.7734 78.6797 19.7109 79.0078 19.5859C79.3359 19.4609 79.5781 19.2812 79.7344 19.0469C79.8984 18.8047 79.9805 18.5195 79.9805 18.1914C79.9805 17.8555 79.9023 17.5664 79.7461 17.3242C79.5898 17.082 79.3477 16.8984 79.0195 16.7734C78.6992 16.6406 78.2812 16.5742 77.7656 16.5742H74.543L74.5664 14.582H78.3984L79.207 15.3555C80.0117 15.4102 80.6797 15.582 81.2109 15.8711C81.7422 16.1602 82.1406 16.5234 82.4062 16.9609C82.6719 17.3984 82.8047 17.875 82.8047 18.3906C82.8047 18.9844 82.6914 19.5078 82.4648 19.9609C82.2461 20.4141 81.918 20.793 81.4805 21.0977C81.0508 21.3945 80.5234 21.6211 79.8984 21.7773C79.2734 21.9258 78.5625 22 77.7656 22ZM84.7031 15.8008V15.5312C84.7031 14.6172 84.8359 13.7695 85.1016 12.9883C85.3672 12.1992 85.75 11.5156 86.25 10.9375C86.7578 10.3516 87.375 9.89844 88.1016 9.57812C88.8359 9.25 89.6641 9.08594 90.5859 9.08594C91.5156 9.08594 92.3438 9.25 93.0703 9.57812C93.8047 9.89844 94.4258 10.3516 94.9336 10.9375C95.4414 11.5156 95.8281 12.1992 96.0938 12.9883C96.3594 13.7695 96.4922 14.6172 96.4922 15.5312V15.8008C96.4922 16.7148 96.3594 17.5625 96.0938 18.3438C95.8281 19.125 95.4414 19.8086 94.9336 20.3945C94.4258 20.9727 93.8086 21.4258 93.082 21.7539C92.3555 22.0742 91.5312 22.2344 90.6094 22.2344C89.6797 22.2344 88.8477 22.0742 88.1133 21.7539C87.3867 21.4258 86.7695 20.9727 86.2617 20.3945C85.7539 19.8086 85.3672 19.125 85.1016 18.3438C84.8359 17.5625 84.7031 16.7148 84.7031 15.8008ZM87.5273 15.5312V15.8008C87.5273 16.3711 87.5859 16.9102 87.7031 17.418C87.8203 17.9258 88.0039 18.3711 88.2539 18.7539C88.5039 19.1367 88.8242 19.4375 89.2148 19.6562C89.6055 19.875 90.0703 19.9844 90.6094 19.9844C91.1328 19.9844 91.5859 19.875 91.9688 19.6562C92.3594 19.4375 92.6797 19.1367 92.9297 18.7539C93.1797 18.3711 93.3633 17.9258 93.4805 17.418C93.6055 16.9102 93.668 16.3711 93.668 15.8008V15.5312C93.668 14.9688 93.6055 14.4375 93.4805 13.9375C93.3633 13.4297 93.1758 12.9805 92.918 12.5898C92.668 12.1992 92.3477 11.8945 91.957 11.6758C91.5742 11.4492 91.1172 11.3359 90.5859 11.3359C90.0547 11.3359 89.5938 11.4492 89.2031 11.6758C88.8203 11.8945 88.5039 12.1992 88.2539 12.5898C88.0039 12.9805 87.8203 13.4297 87.7031 13.9375C87.5859 14.4375 87.5273 14.9688 87.5273 15.5312ZM100.312 9.32031H103.137L102.996 13.7852C102.957 15.082 102.809 16.1953 102.551 17.125C102.293 18.0547 101.957 18.8398 101.543 19.4805C101.129 20.1133 100.66 20.6328 100.137 21.0391C99.6211 21.4453 99.0781 21.7656 98.5078 22H97.6758V19.7734L98.0742 19.75C98.4102 19.3906 98.6992 19.0312 98.9414 18.6719C99.1914 18.3047 99.4023 17.9023 99.5742 17.4648C99.7461 17.0195 99.8789 16.5 99.9727 15.9062C100.074 15.3125 100.141 14.6055 100.172 13.7852L100.312 9.32031ZM101.062 9.32031H109.102V22H106.289V11.7109H101.062V9.32031ZM97.0312 19.75H110.836V25.7734H108.012V22H99.8906V25.7734H97.0195L97.0312 19.75ZM115.699 17.875L120.68 9.32031H123.504V22H120.68V13.4336L115.699 22H112.875V9.32031H115.699V17.875ZM132.375 9.32031V22H129.539V9.32031H132.375ZM136.535 9.32031V11.5469H125.449V9.32031H136.535ZM143.145 22.2344C142.207 22.2344 141.359 22.082 140.602 21.7773C139.852 21.4648 139.211 21.0312 138.68 20.4766C138.156 19.9219 137.754 19.2695 137.473 18.5195C137.191 17.7695 137.051 16.9609 137.051 16.0938V15.625C137.051 14.6328 137.195 13.7344 137.484 12.9297C137.773 12.125 138.176 11.4375 138.691 10.8672C139.207 10.2891 139.816 9.84766 140.52 9.54297C141.223 9.23828 141.984 9.08594 142.805 9.08594C143.711 9.08594 144.504 9.23828 145.184 9.54297C145.863 9.84766 146.426 10.2773 146.871 10.832C147.324 11.3789 147.66 12.0312 147.879 12.7891C148.105 13.5469 148.219 14.3828 148.219 15.2969V16.5039H138.422V14.4766H145.43V14.2539C145.414 13.7461 145.312 13.2695 145.125 12.8242C144.945 12.3789 144.668 12.0195 144.293 11.7461C143.918 11.4727 143.418 11.3359 142.793 11.3359C142.324 11.3359 141.906 11.4375 141.539 11.6406C141.18 11.8359 140.879 12.1211 140.637 12.4961C140.395 12.8711 140.207 13.3242 140.074 13.8555C139.949 14.3789 139.887 14.9688 139.887 15.625V16.0938C139.887 16.6484 139.961 17.1641 140.109 17.6406C140.266 18.1094 140.492 18.5195 140.789 18.8711C141.086 19.2227 141.445 19.5 141.867 19.7031C142.289 19.8984 142.77 19.9961 143.309 19.9961C143.988 19.9961 144.594 19.8594 145.125 19.5859C145.656 19.3125 146.117 18.9258 146.508 18.4258L147.996 19.8672C147.723 20.2656 147.367 20.6484 146.93 21.0156C146.492 21.375 145.957 21.668 145.324 21.8945C144.699 22.1211 143.973 22.2344 143.145 22.2344ZM158.941 9.32031V11.5703H152.754V9.32031H158.941ZM161.156 9.32031V22H158.332V9.32031H161.156ZM152.062 9.32031H154.852L154.512 15.5898C154.465 16.5195 154.371 17.3398 154.23 18.0508C154.098 18.7539 153.918 19.3594 153.691 19.8672C153.465 20.3672 153.188 20.7734 152.859 21.0859C152.531 21.3984 152.148 21.6289 151.711 21.7773C151.273 21.9258 150.781 22 150.234 22H149.355L149.344 19.6797L149.789 19.6445C150.078 19.6211 150.328 19.5469 150.539 19.4219C150.75 19.2891 150.93 19.1016 151.078 18.8594C151.234 18.6172 151.359 18.3047 151.453 17.9219C151.555 17.5391 151.633 17.0859 151.688 16.5625C151.75 16.0391 151.797 15.4297 151.828 14.7344L152.062 9.32031ZM167.074 17.875L172.055 9.32031H174.879V22H172.055V13.4336L167.074 22H164.25V9.32031H167.074V17.875Z" fill="white"/>
</svg>
