<svg width="120" height="92" viewBox="0 0 120 92" fill="none" xmlns="http://www.w3.org/2000/svg">
<rect width="120" height="92" rx="20" fill="#FEF600"/>
<path d="M66.0999 32C68.0533 32.3811 69.8486 33.3365 71.256 34.7439C72.6634 36.1512 73.6187 37.9465 73.9999 39.9L66.0999 32ZM66.0999 24C70.1584 24.4509 73.943 26.2683 76.8323 29.154C79.7216 32.0397 81.5439 35.822 81.9999 39.88L66.0999 24ZM79.9999 55.84V61.84C80.0021 62.397 79.888 62.9483 79.6649 63.4587C79.4417 63.9691 79.1145 64.4272 78.704 64.8037C78.2936 65.1803 77.809 65.467 77.2814 65.6454C76.7537 65.8239 76.1946 65.8901 75.6399 65.84C69.4855 65.1713 63.5739 63.0683 58.3799 59.7C53.5475 56.6293 49.4505 52.5323 46.3799 47.7C42.9998 42.4824 40.8964 36.542 40.2399 30.36C40.1899 29.8069 40.2556 29.2495 40.4329 28.7232C40.6101 28.197 40.895 27.7134 41.2694 27.3032C41.6438 26.8931 42.0995 26.5654 42.6074 26.341C43.1154 26.1167 43.6645 26.0005 44.2199 26H50.2199C51.1905 25.9904 52.1314 26.3342 52.8674 26.9671C53.6033 27.6 54.084 28.4789 54.2199 29.44C54.4731 31.3601 54.9428 33.2455 55.6199 35.06C55.889 35.7758 55.9472 36.5538 55.7877 37.3018C55.6282 38.0497 55.2576 38.7362 54.7199 39.28L52.1799 41.82C55.027 46.8271 59.1728 50.9729 64.1799 53.82L66.7199 51.28C67.2636 50.7423 67.9502 50.3717 68.6981 50.2122C69.446 50.0527 70.224 50.1109 70.9399 50.38C72.7544 51.0571 74.6397 51.5268 76.5599 51.78C77.5314 51.9171 78.4187 52.4064 79.0529 53.155C79.6872 53.9036 80.0242 54.8592 79.9999 55.84Z" stroke="#262727" stroke-width="4" stroke-linecap="round" stroke-linejoin="round"/>
</svg>
