<svg width="21" height="14" viewBox="0 0 21 14" fill="none" xmlns="http://www.w3.org/2000/svg">
<path d="M0.485352 0.203125H4.72168C5.68262 0.203125 6.49414 0.349609 7.15625 0.642578C7.82422 0.935547 8.33105 1.36914 8.67676 1.94336C9.02832 2.51172 9.2041 3.21191 9.2041 4.04395C9.2041 4.62988 9.08398 5.16602 8.84375 5.65234C8.60938 6.13281 8.26953 6.54297 7.82422 6.88281C7.38477 7.2168 6.85742 7.46582 6.24219 7.62988L5.76758 7.81445H1.78613L1.76855 6.43457H4.77441C5.38379 6.43457 5.89062 6.3291 6.29492 6.11816C6.69922 5.90137 7.00391 5.61133 7.20898 5.24805C7.41406 4.88477 7.5166 4.4834 7.5166 4.04395C7.5166 3.55176 7.41992 3.12109 7.22656 2.75195C7.0332 2.38281 6.72852 2.09863 6.3125 1.89941C5.90234 1.69434 5.37207 1.5918 4.72168 1.5918H2.18164V13H0.485352V0.203125ZM7.96484 13L4.85352 7.19922L6.62012 7.19043L9.77539 12.8945V13H7.96484ZM18.8984 0.203125H20.5859V8.86035C20.5859 9.82129 20.3721 10.6211 19.9443 11.2598C19.5166 11.8984 18.9482 12.3789 18.2393 12.7012C17.5361 13.0176 16.7715 13.1758 15.9453 13.1758C15.0781 13.1758 14.293 13.0176 13.5898 12.7012C12.8926 12.3789 12.3389 11.8984 11.9287 11.2598C11.5244 10.6211 11.3223 9.82129 11.3223 8.86035V0.203125H13.001V8.86035C13.001 9.52832 13.124 10.0791 13.3701 10.5127C13.6162 10.9463 13.959 11.2686 14.3984 11.4795C14.8438 11.6904 15.3594 11.7959 15.9453 11.7959C16.5371 11.7959 17.0527 11.6904 17.4922 11.4795C17.9375 11.2686 18.2832 10.9463 18.5293 10.5127C18.7754 10.0791 18.8984 9.52832 18.8984 8.86035V0.203125Z" fill="white"/>
</svg>
