<svg width="82" height="22" viewBox="0 0 82 22" fill="none" xmlns="http://www.w3.org/2000/svg">
<path d="M10.8125 12.4453H13.7422C13.6484 13.5625 13.3359 14.5586 12.8047 15.4336C12.2734 16.3008 11.5273 16.9844 10.5664 17.4844C9.60547 17.9844 8.4375 18.2344 7.0625 18.2344C6.00781 18.2344 5.05859 18.0469 4.21484 17.6719C3.37109 17.2891 2.64844 16.75 2.04688 16.0547C1.44531 15.3516 0.984375 14.5039 0.664062 13.5117C0.351562 12.5195 0.195312 11.4102 0.195312 10.1836V8.76562C0.195312 7.53906 0.355469 6.42969 0.675781 5.4375C1.00391 4.44531 1.47266 3.59766 2.08203 2.89453C2.69141 2.18359 3.42188 1.64062 4.27344 1.26562C5.13281 0.890625 6.09766 0.703125 7.16797 0.703125C8.52734 0.703125 9.67578 0.953125 10.6133 1.45312C11.5508 1.95313 12.2773 2.64453 12.793 3.52734C13.3164 4.41016 13.6367 5.42188 13.7539 6.5625H10.8242C10.7461 5.82812 10.5742 5.19922 10.3086 4.67578C10.0508 4.15234 9.66797 3.75391 9.16016 3.48047C8.65234 3.19922 7.98828 3.05859 7.16797 3.05859C6.49609 3.05859 5.91016 3.18359 5.41016 3.43359C4.91016 3.68359 4.49219 4.05078 4.15625 4.53516C3.82031 5.01953 3.56641 5.61719 3.39453 6.32812C3.23047 7.03125 3.14844 7.83594 3.14844 8.74219V10.1836C3.14844 11.043 3.22266 11.8242 3.37109 12.5273C3.52734 13.2227 3.76172 13.8203 4.07422 14.3203C4.39453 14.8203 4.80078 15.207 5.29297 15.4805C5.78516 15.7539 6.375 15.8906 7.0625 15.8906C7.89844 15.8906 8.57422 15.7578 9.08984 15.4922C9.61328 15.2266 10.0078 14.8398 10.2734 14.332C10.5469 13.8164 10.7266 13.1875 10.8125 12.4453ZM19.1797 5.32031V18H16.3555V5.32031H19.1797ZM27.4531 5.32031L21.7461 12.9492H18.5234L18.1484 10.3945H20.5039L23.9258 5.32031H27.4531ZM24.1484 18L20.3281 12.4688L22.5547 10.8633L27.8633 18H24.1484ZM32.3164 13.875L37.2969 5.32031H40.1211V18H37.2969V9.43359L32.3164 18H29.4922V5.32031H32.3164V13.875ZM45.4062 5.32031H48.2305L48.0898 9.78516C48.0508 11.082 47.9023 12.1953 47.6445 13.125C47.3867 14.0547 47.0508 14.8398 46.6367 15.4805C46.2227 16.1133 45.7539 16.6328 45.2305 17.0391C44.7148 17.4453 44.1719 17.7656 43.6016 18H42.7695V15.7734L43.168 15.75C43.5039 15.3906 43.793 15.0312 44.0352 14.6719C44.2852 14.3047 44.4961 13.9023 44.668 13.4648C44.8398 13.0195 44.9727 12.5 45.0664 11.9062C45.168 11.3125 45.2344 10.6055 45.2656 9.78516L45.4062 5.32031ZM46.1562 5.32031H54.1953V18H51.3828V7.71094H46.1562V5.32031ZM42.125 15.75H55.9297V21.7734H53.1055V18H44.9844V21.7734H42.1133L42.125 15.75ZM60.9219 5.32031V18H58.0977V5.32031H60.9219ZM69.1953 5.32031L63.4883 12.9492H60.2656L59.8906 10.3945H62.2461L65.668 5.32031H69.1953ZM65.8906 18L62.0703 12.4688L64.2969 10.8633L69.6055 18H65.8906ZM74.0586 13.875L79.0391 5.32031H81.8633V18H79.0391V9.43359L74.0586 18H71.2344V5.32031H74.0586V13.875Z" fill="white"/>
</svg>
