<svg width="120" height="92" viewBox="0 0 120 92" fill="none" xmlns="http://www.w3.org/2000/svg">
<rect width="120" height="92" rx="20" fill="#FEF600"/>
<path d="M78 45.0001C78.0069 47.6398 77.3901 50.2438 76.2 52.6001C74.7889 55.4235 72.6195 57.7984 69.9349 59.4586C67.2503 61.1188 64.1565 61.9988 61 62.0001C58.3603 62.0069 55.7562 61.3902 53.4 60.2001L42 64.0001L45.8 52.6001C44.6099 50.2438 43.9931 47.6398 44 45.0001C44.0012 41.8436 44.8812 38.7498 46.5414 36.0652C48.2017 33.3806 50.5765 31.2112 53.4 29.8001C55.7562 28.6099 58.3603 27.9932 61 28.0001H62C66.1687 28.23 70.1061 29.9896 73.0583 32.9418C76.0105 35.894 77.77 39.8314 78 44.0001V45.0001Z" stroke="#262727" stroke-width="4" stroke-linecap="round" stroke-linejoin="round"/>
</svg>
